<?xml version="1.0" encoding="UTF-8" standalone="no"?>
<!-- Created with Inkscape (http://www.inkscape.org/) -->

<svg
   width="81mm"
   height="162mm"
   viewBox="0 0 81 162"
   version="1.1"
   id="svg5"
   inkscape:version="1.1.2 (b8e25be8, 2022-02-05)"
   sodipodi:docname="badajoz_logo.svg"
   xmlns:inkscape="http://www.inkscape.org/namespaces/inkscape"
   xmlns:sodipodi="http://sodipodi.sourceforge.net/DTD/sodipodi-0.dtd"
   xmlns="http://www.w3.org/2000/svg"
   xmlns:svg="http://www.w3.org/2000/svg">
  <sodipodi:namedview
     id="namedview7"
     pagecolor="#ffffff"
     bordercolor="#666666"
     borderopacity="1.0"
     inkscape:pageshadow="2"
     inkscape:pageopacity="0.0"
     inkscape:pagecheckerboard="0"
     inkscape:document-units="mm"
     showgrid="false"
     inkscape:zoom="0.51924479"
     inkscape:cx="425.61814"
     inkscape:cy="339.91675"
     inkscape:window-width="1920"
     inkscape:window-height="965"
     inkscape:window-x="1080"
     inkscape:window-y="388"
     inkscape:window-maximized="0"
     inkscape:current-layer="layer1"
     units="mm"
     width="100mm"
     height="162mm" />
  <defs
     id="defs2" />
  <g
     inkscape:label="Capa 1"
     inkscape:groupmode="layer"
     id="layer1">
    <path
       style="fill:#000000;stroke-width:0.264583"
       d="m 35.582925,160.98586 c -2.496978,-0.24386 -5.936186,-0.72521 -7.408333,-1.03687 -3.220244,-0.68172 -4.625295,-1.1079 -8.466667,-2.56808 -1.423442,-0.54107 -4.680926,-2.33486 -6.193488,-3.41053 -2.333162,-1.65926 -5.7174403,-5.17148 -7.3563063,-7.6344 -1.3974132,-2.10007 -2.9629922,-5.27015 -2.9795082,-6.03309 -0.0057,-0.26306 7.6795825,-0.33073 37.5636785,-0.33073 35.21797,0 37.57083,0.0282 37.57083,0.45082 0,0.84722 -2.34844,5.27996 -3.90833,7.37705 -5.078713,6.82777 -12.857506,10.94581 -24.005209,12.7082 -2.279933,0.36044 -12.607681,0.69337 -14.816667,0.47763 z M 2.2582725,137.78935 C 0.54766154,131.83123 0.48552454,130.19107 0.57682454,93.405499 l 0.0811,-32.676051 39.80570046,-0.067 c 21.893137,-0.0368 39.894216,0.0227 40.002406,0.1323 0.10819,0.10961 0.23359,15.856021 0.27867,34.992006 0.0758,32.163556 0.0473,34.968726 -0.37747,37.121976 -0.63193,3.20369 -1.2551,5.54464 -1.58098,5.93896 -0.21634,0.26178 -8.181075,0.33073 -38.201248,0.33073 H 2.6570815 Z m 31.8185125,-0.39688 c 0.06863,-0.94853 0.0045,-1.12447 -0.410104,-1.12447 -0.619961,0 -1.126464,-0.49548 -1.126464,-1.10195 0,-0.55836 -0.765627,-1.01472 -1.702398,-1.01472 h -0.678852 v -8.45429 -8.45428 l 1.2104,-0.53542 c 0.926391,-0.40979 1.177113,-0.6455 1.068536,-1.00457 -0.190921,-0.63137 -1.292842,-5.95645 -1.301592,-6.28998 -0.01206,-0.45943 0.939972,-2.35668 1.493618,-2.97657 0.467347,-0.52326 0.787379,-0.59531 2.644347,-0.59531 2.054743,0 2.15107,0.029 3.514399,1.05834 0.770964,0.58208 1.464705,1.05833 1.541643,1.05833 0.07694,0 0.452966,-0.47309 0.835618,-1.05131 0.574651,-0.86836 0.779475,-1.00649 1.176983,-0.79375 0.836543,0.4477 1.327949,0.28445 1.614027,-0.53619 0.152188,-0.43656 0.374224,-0.79375 0.493419,-0.79375 0.379949,0 5.152083,5.30051 5.237678,5.8176 0.04804,0.29022 -0.14438,0.61786 -0.463021,0.78839 -0.789112,0.42232 -0.67175,1.25489 0.353214,2.50572 l 0.898435,1.09642 -1.29531,2.19485 c -0.758166,1.28468 -1.29531,2.51697 -1.29531,2.97164 0,1.32197 1.791261,2.96156 4.867418,4.45526 1.470263,0.71393 2.881566,1.36256 3.136228,1.44141 0.392964,0.12166 0.463021,0.48044 0.463021,2.3713 0,3.05952 -0.303753,3.42512 -2.944726,3.54432 -2.466321,0.11131 -2.999861,0.22672 -3.538614,0.76548 -0.568404,0.5684 -0.120385,0.87755 1.279866,0.88314 1.394323,0.006 1.154007,0.49341 -0.677836,1.376 -1.577319,0.75996 -2.340366,1.47911 -1.273326,1.20007 0.330566,-0.0864 0.820897,-0.0199 1.089629,0.14796 0.359407,0.22446 0.771104,0.22973 1.557012,0.0199 1.208931,-0.32268 1.307007,-0.18449 0.514773,0.72531 l -0.553641,0.63579 1.266651,0.0828 c 0.790829,0.0517 1.952855,-0.13789 3.093344,-0.50461 1.64936,-0.53034 1.894787,-0.54982 2.528134,-0.2007 0.779931,0.42993 1.878084,0.35924 1.917702,-0.12344 0.0141,-0.17178 0.0058,-0.74832 -0.01855,-1.2812 -0.03228,-0.70791 0.174604,-1.27091 0.768112,-2.09022 0.446765,-0.61674 0.8123,-1.44609 0.8123,-1.843 0,-0.39691 0.188857,-0.87839 0.419682,-1.06996 0.273489,-0.22698 0.370647,-0.59349 0.278916,-1.05215 -0.07742,-0.38711 -0.01802,-0.82658 0.131998,-0.9766 0.187301,-0.18731 0.132191,-0.54462 -0.175882,-1.14037 -0.345395,-0.66792 -0.408797,-1.21986 -0.275479,-2.39822 l 0.17317,-1.53064 -1.73141,-0.99582 c -0.952277,-0.54769 -1.731412,-1.11288 -1.731412,-1.25596 0,-0.14308 0.306938,-0.70306 0.68208,-1.2444 0.651299,-0.93982 0.662393,-1.01429 0.24578,-1.65012 -0.340948,-0.52035 -0.372333,-0.78541 -0.143606,-1.21279 0.160983,-0.3008 0.377804,-0.54451 0.481825,-0.54157 0.104021,0.003 1.14163,0.71491 2.305796,1.58216 2.058062,1.53316 2.162932,1.57697 3.787707,1.58216 2.191419,0.007 2.602963,-0.25009 3.072241,-1.91923 1.017659,-3.61963 1.022321,-3.59697 -2.372112,-11.52912 l -2.077503,-4.85473 0.646917,-0.4972 c 0.355804,-0.27346 1.03387,-0.49984 1.506813,-0.50308 0.472943,-0.003 0.859896,-0.10476 0.859896,-0.22562 0,-0.12085 -0.541798,-0.608816 -1.203995,-1.084366 -0.662196,-0.47555 -1.158933,-0.99982 -1.10386,-1.16504 0.05507,-0.16522 0.596871,-0.39863 1.203995,-0.5187 0.607123,-0.12006 1.10386,-0.31227 1.10386,-0.42712 0,-0.11486 -0.479637,-0.42512 -1.065856,-0.68947 -0.586221,-0.26435 -1.024324,-0.60524 -0.973558,-0.75753 0.05077,-0.1523 0.669581,-0.40058 1.375143,-0.55174 2.008926,-0.43039 1.860238,-0.807245 -0.724792,-1.836985 -0.545703,-0.21738 -0.992187,-0.5647 -0.992187,-0.77183 0,-0.65523 1.312513,-4.47457 2.178304,-6.33875 0.894757,-1.92655 0.850651,-1.89863 3.444092,-2.18032 1.6502,-0.17924 1.95374,-0.58805 0.955685,-1.28712 l -0.565668,-0.39621 0.533384,-1.14015 c 0.293359,-0.62708 0.617909,-1.64616 0.721219,-2.26462 l 0.18783,-1.12448 h -1.090387 c -0.643649,0 -1.63463,0.27579 -2.418776,0.67315 l -1.328391,0.67314 -0.472045,-0.58295 c -0.841087,-1.0387 -1.086914,-0.41472 -1.086914,2.75892 0,2.86403 -0.03166,3.02713 -0.958358,4.93739 -1.390592,2.8665 -2.933049,7.776 -3.293102,10.481645 -0.352663,2.65009 -0.177837,5.788086 0.455642,8.178496 0.231386,0.87313 1.358696,3.53618 2.505136,5.91791 1.146437,2.38172 2.084432,4.53186 2.084432,4.77808 0,1.22536 -1.786781,1.90071 -2.801244,1.05878 -0.210823,-0.17497 -3.268427,-3.83841 -6.79468,-8.14098 -3.526253,-4.30257 -6.589962,-8.0336 -6.808243,-8.29116 -0.379465,-0.447756 -0.460708,-0.446986 -1.852083,0.0176 -0.800365,0.26723 -1.585212,0.43723 -1.744105,0.37776 -0.158892,-0.0595 -0.559768,-0.59006 -0.890836,-1.179116 -0.523782,-0.93194 -0.692398,-1.05036 -1.298604,-0.91199 -2.253927,0.51444 -2.293816,0.50986 -3.014509,-0.34664 -0.379883,-0.45148 -0.754785,-0.82086 -0.833109,-0.82086 -0.07833,0 -0.651561,0.50602 -1.273853,1.12448 -0.622295,0.61846 -1.862484,1.511426 -2.755979,1.984366 -1.517875,0.80344 -1.795817,0.85963 -4.233334,0.85585 -1.434838,-0.002 -2.747893,-0.0925 -2.917901,-0.20069 -0.269185,-0.17124 -0.468469,-3.752516 -0.375092,-6.740566 0.03298,-1.055305 0.551905,-0.895695 0.551905,0.16975 0,0.72997 0.120097,0.9275 0.643824,1.05895 0.354102,0.0889 0.719314,0.39944 0.81158,0.69014 0.124825,0.39329 0.400481,0.52855 1.077153,0.52855 0.500171,0 2.028095,0.29766 3.395387,0.66146 1.367296,0.3638 2.597807,0.66146 2.734469,0.66146 0.270687,0 0.862587,-1.14885 0.862587,-1.67424 0,-0.17953 -0.357188,-0.46124 -0.79375,-0.62602 -0.934749,-0.35283 -0.973733,-0.66741 -0.264583,-2.135185 0.751339,-1.55509 0.680934,-1.82028 -0.595313,-2.24226 -0.979337,-0.3238 -1.355,-0.70464 -2.910417,-2.95048 -1.684102,-2.43165 -1.785937,-2.66299 -1.785937,-4.05705 0,-1.1436 0.140901,-1.66376 0.622244,-2.29709 0.981419,-1.29131 1.423477,-2.35496 1.253951,-3.01715 -0.191609,-0.74844 -0.499558,-0.68414 -1.304402,0.27236 -0.34036,0.4045 -0.725715,0.73544 -0.856345,0.73544 -0.130632,0 -0.422246,-0.44212 -0.64803,-0.9825 -0.422164,-1.01038 -1.117116,-1.92791 -1.460231,-1.92791 -0.331194,0 -0.542147,1.75308 -0.290573,2.41477 0.169886,0.44684 0.133416,0.72639 -0.126426,0.96912 -0.224295,0.20952 -0.365188,0.89855 -0.365188,1.78591 0,0.79463 -0.108487,1.44478 -0.241083,1.44478 -0.299048,0 -0.449977,-2.56679 -0.328949,-5.59438 l 0.09142,-2.287091 0.780788,-0.15615 c 0.562692,-0.11254 0.858481,-0.37903 1.058937,-0.95406 0.200419,-0.57493 0.44785,-0.7979 0.885417,-0.7979 0.714296,0 0.885688,-0.36782 0.678075,-1.45521 l -0.151548,-0.79375 -9.450444,-0.0695 -9.450446,-0.0695 -0.161599,0.64387 c -0.265168,1.05651 -0.03642,1.60494 0.705482,1.69143 0.475771,0.0555 0.796632,0.33682 1.056071,0.92604 0.310582,0.70537 0.537959,0.86005 1.364854,0.92849 l 0.992187,0.0821 v 6.605161 6.60516 l -0.595312,0.22849 c -1.973139,0.75734 -4.167315,1.91693 -4.168064,2.20277 -7.94e-4,0.3395 0.978937,6.457055 1.208246,7.543665 0.154118,0.73032 0.373809,0.73855 1.765525,0.0662 0.602385,-0.29104 1.25148,-0.52916 1.442427,-0.52916 0.277606,0 0.347178,1.377226 0.347178,6.872546 v 6.87255 l -1.124479,0.50315 c -0.618464,0.27674 -1.688521,0.74861 -2.377906,1.04859 -1.171726,0.50989 -1.243137,0.5969 -1.095518,1.33499 0.154914,0.77457 0.133512,0.79261 -1.127823,0.95057 -1.930228,0.24174 -3.5915973,0.76822 -3.8125543,1.20818 -0.108196,0.21544 -0.445497,1.76092 -0.749559,3.43441 -0.304062,1.67349 -0.73306,4.03813 -0.953333,5.25475 -0.220271,1.21662 -0.400495,2.37349 -0.400495,2.57083 0,0.21603 0.674246,-0.11255 1.694606,-0.82583 2.0302753,-1.41926 3.6921923,-2.05718 4.8183143,-1.84948 1.34362,0.24782 1.689164,-0.0286 1.689164,-1.35152 0,-1.12658 0.04332,-1.19027 1.124479,-1.65318 0.618463,-0.2648 1.39237,-0.56624 1.719792,-0.66988 l 0.595312,-0.18843 v 5.97095 5.97096 h -0.761354 c -0.869707,0 -1.264912,0.37448 -1.396106,1.32292 -0.06869,0.49659 -0.272852,0.68232 -0.819102,0.74517 -0.672095,0.0773 -0.727605,0.17347 -0.727605,1.26008 v 1.17635 l 9.591146,-0.0694 9.591146,-0.0694 z M 16.3548,119.66539 c -0.709031,-0.83657 -1.550803,-2.48314 -1.396821,-2.73229 0.338096,-0.54705 0.812671,-0.17255 1.367341,1.07899 0.623538,1.40694 0.781166,1.51344 1.468022,0.99184 0.401254,-0.30471 0.391718,-0.43064 -0.121251,-1.60089 -0.39634,-0.90418 -0.474982,-1.35194 -0.272933,-1.55399 0.202049,-0.20204 0.518374,0.18081 1.097859,1.32877 0.924759,1.83193 0.984753,2.15684 0.398259,2.15684 -0.228674,0 -0.594368,0.1786 -0.812649,0.39688 -0.52923,0.52923 -1.246489,0.50177 -1.727827,-0.0661 z m 3.198066,-1.5875 c -0.150839,-0.40018 -0.445548,-1.07332 -0.65491,-1.49586 -0.482214,-0.97322 -0.484156,-1.4807 -0.0057,-1.4807 0.206246,0 0.581094,0.53967 0.832996,1.19927 0.52497,1.37461 0.784887,1.6141 1.29359,1.19191 0.271267,-0.22513 0.411232,-0.22011 0.559673,0.0201 0.220967,0.35753 -0.775483,1.29292 -1.377317,1.29292 -0.205764,0 -0.497528,-0.32743 -0.648367,-0.72761 z m 2.762192,-2.06071 c -0.548172,-1.19737 -0.76327,-1.43608 -1.175986,-1.30509 -0.984758,0.31255 -0.512688,-0.54098 0.555043,-1.00355 0.583081,-0.25261 1.118862,-0.45929 1.190625,-0.45929 0.285025,0 0.10935,0.75687 -0.200252,0.86277 -0.243298,0.0832 -0.173353,0.44065 0.264583,1.35205 0.647565,1.34766 0.752618,2.01851 0.316092,2.01851 -0.153572,0 -0.58112,-0.65943 -0.950105,-1.4654 z m 1.834965,-1.2271 c -0.787861,-1.5115 -0.81669,-1.65487 -0.396875,-1.97382 1.027509,-0.78065 2.172486,-0.26059 2.172486,0.98676 0,0.68857 0.404772,1.03373 1.212265,1.03373 0.285086,0 0.375235,-0.40943 0.375235,-1.70418 0,-0.9373 0.120541,-1.77868 0.267872,-1.86973 0.4025,-0.24876 3.252885,2.27565 2.931916,2.59662 -0.173212,0.17321 -0.474059,0.12339 -0.886433,-0.14682 -0.769252,-0.50403 -1.519605,-0.17034 -1.519605,0.67579 0,0.78388 -1.4374,1.46309 -2.151936,1.01686 -0.699966,-0.43714 -0.788765,-0.38445 -0.602546,0.3575 0.321794,1.28214 -0.537853,0.68587 -1.402379,-0.97271 z m 0.981861,-1.27625 c 0,-0.14552 -0.119063,-0.26458 -0.264584,-0.26458 -0.145521,0 -0.264583,0.11906 -0.264583,0.26458 0,0.14552 0.119062,0.26458 0.264583,0.26458 0.145521,0 0.264584,-0.11906 0.264584,-0.26458 z m 3.704166,-0.66146 c 0,-0.21828 -0.119062,-0.39687 -0.264583,-0.39687 -0.145521,0 -0.264583,0.17859 -0.264583,0.39687 0,0.21828 0.119062,0.39688 0.264583,0.39688 0.145521,0 0.264583,-0.1786 0.264583,-0.39688 z M 18.054279,96.128504 c -0.181901,-0.0667 -0.330729,-0.23616 -0.330729,-0.37658 0,-0.14043 -0.238125,-0.74818 -0.529167,-1.35057 -0.646369,-1.337835 -0.65206,-1.505695 -0.06614,-1.950465 0.710549,-0.53938 1.332767,-0.43561 1.816713,0.30299 0.419008,0.63948 0.412089,0.70085 -0.145954,1.29486 -0.508574,0.541355 -0.540473,0.696155 -0.241941,1.174185 0.371412,0.59472 0.08015,1.11932 -0.502777,0.90558 z m 0.198438,-2.575105 c 0,-0.20969 -0.119063,-0.45484 -0.264584,-0.54478 -0.14552,-0.0899 -0.264583,0.0816 -0.264583,0.38126 0,0.29963 0.119063,0.54478 0.264583,0.54478 0.145521,0 0.264584,-0.17156 0.264584,-0.38126 z m 1.829316,0.71199 c -0.150839,-0.40018 -0.445548,-1.07332 -0.65491,-1.49586 -0.496636,-1.00233 -0.480142,-1.21612 0.09383,-1.21612 0.316543,0 0.61304,0.37431 0.890715,1.12448 0.37456,1.01192 0.499218,1.12058 1.245301,1.08547 0.97464,-0.0459 1.060098,0.24407 0.241038,0.817765 -0.880819,0.61695 -1.505355,0.50837 -1.815978,-0.315735 z m 2.616046,-1.05833 c -0.511738,-0.59362 -1.270362,-2.15841 -1.270362,-2.62034 0,-0.79765 0.803121,-0.27906 1.29704,0.83753 0.601713,1.36027 1.195748,1.71852 1.817918,1.09635 0.394404,-0.39441 0.382378,-0.51375 -0.152807,-1.5164 -0.648706,-1.21532 -0.749168,-1.92789 -0.250172,-1.77441 0.341709,0.1051 1.743255,2.72987 1.770539,3.31581 0.0085,0.1819 -0.208148,0.33073 -0.481373,0.33073 -0.273222,0 -0.644988,0.17859 -0.826145,0.39687 -0.444246,0.53529 -1.415238,0.50157 -1.904638,-0.0661 z m 3.613423,-1.14229 c -0.0961,-0.1555 0.07522,-0.3477 0.381259,-0.42773 0.674976,-0.17651 0.743268,-0.87738 0.0855,-0.87738 -0.704972,0 -1.646372,-0.75645 -1.646372,-1.32291 0,-0.51717 0.922186,-1.32292 1.51408,-1.32292 0.545338,0 0.387403,0.71911 -0.191164,0.87041 -0.794983,0.2079 -0.636225,0.71709 0.223576,0.71709 0.762997,0 1.628508,0.69163 1.628508,1.30134 0,0.39169 -1.049827,1.32295 -1.505739,1.33569 -0.173313,0.005 -0.393652,-0.11827 -0.489643,-0.27359 z m 14.580547,35.604271 c 0.172625,-0.92018 0.463315,-1.16787 0.776293,-0.66146 0.250495,0.40531 0.621133,0.31773 1.119725,-0.26458 0.276177,-0.32256 0.780505,-0.52917 1.291643,-0.52917 0.664689,0 0.871633,-0.13178 0.998072,-0.63556 0.115826,-0.46149 0.558472,-0.80091 1.616183,-1.23931 0.801169,-0.33207 1.456669,-0.71349 1.456669,-0.8476 0,-0.13412 -0.297656,-0.59759 -0.661458,-1.02995 -0.527386,-0.62676 -0.661459,-1.07657 -0.661459,-2.21918 0,-1.23907 0.161515,-1.69262 1.192999,-3.35011 l 1.193001,-1.91703 -0.796126,-0.74404 c -0.587434,-0.549 -0.796124,-0.98327 -0.796124,-1.65667 v -0.91263 h -2.13514 c -1.947097,0 -2.238375,0.071 -3.307291,0.80646 l -1.172152,0.80646 v 3.80874 c 0,3.63591 -0.02668,3.82744 -0.588039,4.22063 -0.323419,0.22653 -1.012505,0.41187 -1.5313,0.41187 -0.785805,0 -1.162436,-0.22482 -2.256232,-1.34683 -2.06656,-2.11985 -3.470897,-2.40132 -2.501627,-0.50139 0.663937,1.30142 0.662193,1.31906 -0.130464,1.31906 -0.871273,0 -3.046505,0.58907 -3.046505,0.82502 0,0.10236 0.539893,0.44746 1.199764,0.7669 0.970838,0.46997 1.141351,0.65117 0.893643,0.94964 -0.168365,0.20287 -0.432694,0.36885 -0.587396,0.36885 -0.410816,0 -1.506011,1.09179 -1.506011,1.50133 0,0.25231 0.44555,0.35076 1.5875,0.35076 0.873125,0 1.586746,0.0893 1.585828,0.19843 -7.94e-4,0.10914 -0.358108,0.40126 -0.79375,0.64916 -0.885698,0.50398 -1.192064,1.78005 -0.329057,1.37058 0.254661,-0.12083 1.662814,-0.25989 3.129227,-0.30901 2.170078,-0.0727 2.729984,-0.0125 3.008958,0.32368 0.188516,0.22714 0.620438,0.41299 0.959827,0.41299 0.495747,0 0.651229,-0.18208 0.790799,-0.92604 z m 14.767487,-26.51481 0.03172,-1.795606 1.256771,-0.0806 1.256771,-0.0806 v -2.33436 c 0,-1.78351 0.09656,-2.41449 0.409226,-2.673985 0.225073,-0.1868 0.656672,-0.68713 0.959104,-1.11186 l 0.549881,-0.77223 -0.959107,-0.98222 c -0.527508,-0.54021 -0.959104,-1.08981 -0.959104,-1.22132 0,-0.13151 0.554871,-0.72737 1.233043,-1.32414 l 1.233046,-1.08502 -0.462153,-1.21013 c -0.448776,-1.1751 -0.44653,-1.24075 0.07755,-2.26803 l 0.539703,-1.0579 -0.649134,-0.87986 c -0.357024,-0.48391 -0.650957,-1.1246 -0.653185,-1.42376 -0.0021,-0.29915 -0.09894,-0.69336 -0.214919,-0.87603 -0.115974,-0.18267 -2.35527,-1.05659 -4.976214,-1.94203 l -4.76535,-1.609901 -0.992714,0.673681 c -1.101418,0.74744 -3.612859,1.75517 -4.374203,1.75517 -0.542049,0 -0.936035,0.68594 -0.535995,0.93318 0.139165,0.086 0.253029,0.49048 0.253029,0.89883 0,0.83461 0.898503,2.13674 1.474411,2.13674 0.20772,0 0.377672,-0.19518 0.377672,-0.43373 0,-0.36692 0.210857,-0.40876 1.368801,-0.27162 1.657466,0.1963 1.869342,0.38076 1.759325,1.5316 l -0.08542,0.89354 -1.984375,-0.0565 c -1.091406,-0.0311 -2.500497,-0.25316 -3.131314,-0.49348 -0.9558,-0.36413 -1.234533,-0.64131 -1.672559,-1.66326 -0.707077,-1.64966 -1.211926,-2.15235 -2.161614,-2.15235 -0.761785,0 -1.765763,0.62507 -1.765763,1.09934 0,0.12297 0.418219,0.22358 0.929378,0.22358 0.868389,0 0.970256,0.0924 1.552295,1.40853 0.641501,1.45054 0.948711,1.67148 3.074577,2.21113 0.792544,0.20119 0.945468,0.36726 1.0608,1.15198 0.107616,0.73223 0.240839,0.90056 0.661458,0.83575 0.289684,-0.0446 1.458873,-0.14977 2.598192,-0.23364 l 2.071495,-0.1525 -0.08712,0.7383 c -0.08024,0.68005 -0.233904,0.77266 -1.947666,1.1739 -3.684405,0.86262 -6.761809,2.74416 -7.792427,4.76434 -0.548611,1.075375 -0.444577,1.428405 0.508709,1.726295 0.354923,0.11091 1.202098,0.77328 1.882609,1.47194 l 1.237295,1.27028 1.027808,-0.36633 c 1.467646,-0.52309 1.500955,-0.5122 2.420223,0.79199 l 0.832826,1.18153 1.268627,-0.38492 c 0.697746,-0.21171 1.455859,-0.38621 1.684692,-0.38779 0.228836,-0.002 1.28745,1.01219 2.352474,2.252816 1.065025,1.24063 1.994615,2.19749 2.065756,2.12634 0.07114,-0.0711 0.143621,-0.93737 0.161068,-1.92496 z M 48.613655,79.759999 c -0.355603,-0.36025 -0.209545,-1.0791 0.315867,-1.5546 0.490416,-0.44382 0.570707,-0.4439 1.728433,-0.002 0.667769,0.25503 1.276932,0.56531 1.353699,0.68951 0.285874,0.46256 -2.975756,1.29462 -3.397999,0.86685 z m 11.763783,-2.665 1.511181,-1.226621 -0.156414,-1.21946 c -0.08603,-0.67071 -0.249624,-1.32215 -0.363543,-1.44766 -0.113919,-0.12551 -0.634264,0.11262 -1.156319,0.52917 -0.675484,0.53896 -0.949196,0.96717 -0.949201,1.48496 -5e-6,0.54537 -0.129423,0.72761 -0.516726,0.72761 -0.411451,0 -1.620433,-0.40039 -2.081302,-0.68927 -0.04646,-0.0291 0.06962,-0.2997 0.257958,-0.60128 0.270216,-0.43269 0.274082,-0.61668 0.01834,-0.87243 -0.178261,-0.17826 -0.324107,-0.65046 -0.324107,-1.04933 0,-1.05194 -0.466445,-1.18012 -1.319689,-0.36266 -0.411136,0.39389 -0.844764,0.73432 -0.963618,0.7565 -0.118853,0.0222 -0.178996,0.32346 -0.133651,0.66948 0.07785,0.59405 0.0258,0.61873 -0.933112,0.44243 -1.281745,-0.23564 -1.597197,-0.53013 -1.147847,-1.07157 0.263581,-0.31759 0.273696,-0.4936 0.0417,-0.72559 -0.168458,-0.16845 -0.30811,-0.60989 -0.310338,-0.98097 -0.0021,-0.37108 -0.114022,-0.84855 -0.248431,-1.06104 -0.209145,-0.33065 -0.323003,-0.31521 -0.789699,0.10715 -0.299926,0.27143 -0.545319,0.65365 -0.545319,0.84938 0,0.19572 -0.248047,0.35586 -0.551215,0.35586 -0.336632,0 -0.498625,0.12875 -0.416126,0.33073 0.0743,0.1819 0.333976,1.00088 0.577059,1.81994 l 0.441973,1.48921 4.141343,1.453041 c 2.277738,0.79917 4.200872,1.46788 4.273633,1.48604 0.07276,0.0181 0.812321,-0.51898 1.64347,-1.19362 z M 11.75315,55.239348 c -0.251171,-0.76398 -0.511603,-1.53789 -0.578739,-1.71979 -0.09718,-0.26333 5.868641,-0.33073 29.274998,-0.33073 21.139778,0 29.397059,0.0815 29.397059,0.29001 0,0.1595 -0.187042,0.93341 -0.41565,1.71979 l -0.41565,1.42978 H 40.612499 12.209826 Z m 53.964445,-3.11414 c -0.451869,-0.0972 -1.137029,-0.40371 -1.522574,-0.68106 -0.852223,-0.61307 -2.450857,-2.92502 -2.694906,-3.89739 -0.173302,-0.69049 -0.14777,-0.70793 1.036587,-0.70793 1.109507,0 1.228061,-0.0628 1.374148,-0.7276 0.451538,-2.05489 1.684904,-4.29948 2.362497,-4.29948 0.631139,0 1.937115,1.88099 2.416034,3.4798 0.254916,0.851 0.589778,1.55934 0.744138,1.57409 0.154361,0.0147 0.655585,0.007 1.113833,-0.018 1.123743,-0.0604 1.266931,0.29611 0.600636,1.49545 -1.669156,3.00448 -3.409921,4.21686 -5.430393,3.78209 z m -54.152304,-1.05599 c -1.178841,-1.03766 -2.6969563,-3.55118 -2.4177233,-4.00298 0.0773,-0.12508 0.613505,-0.22741 1.1915673,-0.22741 0.620567,0 1.084704,-0.13545 1.133263,-0.33073 0.609817,-2.45234 1.845546,-4.69635 2.586181,-4.69635 0.677891,0 2.206127,2.48754 2.557613,4.16307 0.20465,0.97557 0.231526,0.99451 1.291654,0.91014 0.595458,-0.0474 1.162018,0.0423 1.259022,0.19921 0.289819,0.46894 -1.208222,2.91064 -2.46384,4.01588 -1.041019,0.91634 -1.323533,1.03045 -2.551353,1.03045 -1.234686,0 -1.508218,-0.11224 -2.586384,-1.06128 z m 13.860756,0.42164 c -1.025803,-0.75681 -2.035863,-2.05622 -2.561502,-3.29528 -0.544486,-1.28349 -0.502227,-1.35675 0.782685,-1.35675 1.099989,0 1.169828,-0.0453 1.325324,-0.8599 0.264388,-1.38503 1.390798,-3.57046 2.011503,-3.90265 0.469524,-0.25128 0.671975,-0.21922 1.120222,0.1774 0.583814,0.51657 2.054688,3.51064 2.054688,4.18246 0,0.28822 0.282046,0.40384 0.992188,0.40674 1.552498,0.006 1.733584,0.24922 1.091393,1.46386 -1.431036,2.70667 -2.814183,3.82118 -4.744157,3.82277 -0.860391,7.9e-4 -1.453496,-0.18208 -2.072344,-0.63865 z m 13.320602,0.14674 c -1.369497,-0.83515 -2.754593,-2.76383 -3.083571,-4.29373 -0.05651,-0.2628 0.268238,-0.41177 1.100945,-0.50504 1.079299,-0.12089 1.195999,-0.20569 1.353947,-0.98387 0.25141,-1.23865 1.512493,-3.70148 1.988947,-3.88432 0.225023,-0.0863 0.628806,-0.0394 0.897295,0.10426 0.598881,0.32051 2.119339,3.29403 2.119339,4.14473 0,0.64737 0.187941,0.71322 1.785937,0.62573 0.562695,-0.0308 0.859039,0.0742 0.857414,0.30393 -0.005,0.70973 -1.592008,3.09387 -2.678411,4.02379 -0.932202,0.79793 -1.31994,0.95725 -2.32767,0.95643 -0.710543,-5.3e-4 -1.541105,-0.20343 -2.014172,-0.49191 z m 11.976976,-0.56838 c -1.178841,-1.03766 -2.696956,-3.55118 -2.417723,-4.00298 0.0773,-0.12508 0.594839,-0.22741 1.150086,-0.22741 h 1.009539 l 0.581908,-1.80974 c 0.524341,-1.6307 1.555766,-3.21734 2.091489,-3.21734 0.730785,0 2.270975,2.51749 2.670871,4.36562 0.161034,0.74422 0.239377,0.78837 1.255395,0.70759 0.596003,-0.0474 1.163008,0.0423 1.260012,0.19921 0.289819,0.46894 -1.208222,2.91064 -2.46384,4.01588 -1.041019,0.91634 -1.323533,1.03045 -2.551353,1.03045 -1.234686,0 -1.508218,-0.11224 -2.586384,-1.06128 z M 7.0961257,40.159118 c -0.335068,-0.26942 -1.278826,-2.64996 -1.278826,-3.22573 0,-0.0818 15.5471153,-0.14873 34.5491493,-0.14873 h 34.549152 l -0.18679,0.85042 c -0.10273,0.46773 -0.33253,1.2714 -0.51066,1.78594 l -0.32388,0.93552 -33.192775,0.0672 c -26.293617,0.0532 -33.2785353,-0.002 -33.6053703,-0.26459 z m -2.7731322,-6.74478 c -2.011408,-4.54815 -2.404708,-8.03228 -1.27717,-11.31405 1.412952,-4.11247 5.4285462,-6.50853 11.5735765,-6.90581 2.329895,-0.15064 2.852145,-0.11615 2.97202,0.19624 0.07999,0.20844 -0.191487,1.20106 -0.603277,2.20581 l -0.748702,1.82684 -2.102218,0.34876 c -2.465993,0.40912 -3.377784,0.72801 -4.5520533,1.59202 -2.391203,1.75942 -2.597957,5.54529 -0.621339,11.37727 0.306699,0.90491 0.557636,1.76812 0.557636,1.91823 0,0.16625 -0.884749,0.27293 -2.263519,0.27293 H 4.9944295 Z M 20.13959,27.722678 c -2.31259,-6.94872 -2.388682,-7.25302 -2.100583,-8.40052 0.87158,-3.47149 4.258782,-6.56965 8.544788,-7.81563 2.457363,-0.71437 7.867624,-0.17141 8.251159,0.82806 0.06635,0.1729 -0.420683,1.15886 -1.082284,2.19102 -1.137915,1.77526 -1.239843,1.86263 -1.886365,1.61682 -0.375899,-0.14292 -1.485763,-0.25985 -2.466364,-0.25985 -2.977356,0 -5.673736,1.75527 -6.394712,4.1628 -0.280511,0.93669 -0.154046,1.39919 2.104731,7.69725 1.321745,3.68537 2.403174,6.81076 2.403174,6.94531 0,0.13455 -1.119156,0.24464 -2.487015,0.24464 h -2.487015 z m 17.673469,6.08542 c -2.814328,-10.41672 -3.210275,-12.24411 -2.901461,-13.39095 0.557967,-2.07213 2.68297,-3.09642 5.988288,-2.88646 2.221471,0.14111 3.876795,0.93323 4.793113,2.29362 0.699622,1.03868 0.754142,2.01463 0.233106,4.17284 -0.204843,0.84849 -0.627719,2.67382 -0.939718,4.05626 -0.817034,3.6202 -1.34655,5.88507 -1.500069,6.41615 -0.115845,0.40076 -0.485878,0.46302 -2.751648,0.46302 h -2.617806 z m 15.100075,0.89452 c 0,-0.22259 0.532175,-1.73889 3.436655,-9.79189 1.567719,-4.34669 1.578491,-4.88905 0.13068,-6.58049 -1.369293,-1.59971 -3.25878,-2.44766 -5.454142,-2.44766 -0.980602,0 -2.08539,0.115 -2.45509,0.25556 -0.608216,0.23124 -0.744786,0.14942 -1.435225,-0.85989 -0.864044,-1.2631 -1.631211,-2.69442 -1.631211,-3.04338 0,-0.38879 3.526581,-1.11479 5.415163,-1.11479 2.09794,0 5.193001,0.9505 6.884409,2.11422 1.489342,1.0247 3.53464,3.31459 4.137821,4.63265 0.870598,1.90244 0.674187,3.04894 -1.753018,10.23268 -1.236927,3.66091 -2.248958,6.69597 -2.248958,6.74458 0,0.0486 -1.131094,0.0884 -2.513542,0.0884 -1.382448,0 -2.513542,-0.10348 -2.513542,-0.22996 z m 17.991667,0.0589 c 0,-0.0941 0.346946,-1.25495 0.770988,-2.57969 1.052436,-3.28787 1.426662,-6.11843 1.033894,-7.82001 -0.605901,-2.62491 -2.441131,-3.95119 -6.309702,-4.55991 l -2.196589,-0.34564 -0.632875,-1.43104 c -0.348084,-0.78708 -0.704424,-1.78878 -0.791872,-2.22602 l -0.158993,-0.79497 2.885802,0.17809 c 3.197879,0.19735 4.918202,0.57952 7.02953,1.56161 1.654437,0.76957 3.704547,2.74731 4.455167,4.29789 1.55149,3.20494 1.23495,7.83912 -0.83584,12.23711 l -0.77862,1.65365 h -2.23545 c -1.229491,0 -2.23544,-0.077 -2.23544,-0.17107 z M 38.25078,15.754678 c -1.584738,-0.56466 -2.391246,-1.51227 -2.391246,-2.80959 0,-0.88625 0.154776,-1.2237 0.843521,-1.8391 1.08182,-0.9666 2.690905,-1.3983695 4.357277,-1.1691795 1.725044,0.2372495 3.386135,1.7191495 3.386135,3.0208495 0,1.5818 -2.305605,3.21001 -4.497916,3.17641 -0.363803,-0.006 -1.127798,-0.1763 -1.697771,-0.37939 z m 0.986086,-7.2241095 c -0.173143,-0.11009 -0.351737,-0.85241 -0.396875,-1.6496 l -0.08207,-1.44943 -2.198131,-0.0771 -2.198132,-0.0771 0.08147,-0.9812399 0.08146,-0.98124 2.116667,-0.13229 2.116666,-0.13229 0.07935,-1.52136 0.07935,-1.52135004 h 1.428801 1.4288 l 0.07935,1.52135004 0.07935,1.52136 2.116666,0.13229 2.116667,0.13229 0.08146,0.98124 0.08147,0.9812399 -2.198132,0.0771 -2.198131,0.0771 -0.08207,1.44943 c -0.08955,1.58151 -0.307861,1.84976 -1.505434,1.84976 -0.436563,0 -0.935414,-0.0901 -1.10856,-0.20016 z"
       id="path905"
       sodipodi:nodetypes="sssssssssssssccsccsscssssscccsssssssssssssscssssssscscccscsssscssssssscssssscsssscscssssssssssssscsscsscssssssssssscscssssccsssssssssssssssssssssssscsssscccscsccccscsssscssssssssssssscccsssscccscsssssssscccssssssccsssssssssssssssssssssssssssssssssssssssscssssssscssscssssscssccsssssssscsssssssssssscsscsscsssssssssssscssssssccccssscssscsscscsscssssssssccsssssssscscssssscsscscscsccsccccscssssssssssssssscsssssscscsssssscccscssssssccsccssssssscsssssssssscscscsssccsscsccssscsssscssscsscssccccsscsccssssscsssssssssssscssssssssscsssssssssssssssssssscsscsssscssssccscscscccccccccccccccccccsscc" />
  </g>
</svg>
