<?xml version="1.0" encoding="UTF-8" standalone="no"?>
<!-- Created with Inkscape (http://www.inkscape.org/) -->

<svg
   width="105mm"
   height="58mm"
   viewBox="0 0 105 58"
   version="1.1"
   id="svg5"
   inkscape:version="1.1.2 (b8e25be8, 2022-02-05)"
   sodipodi:docname="logo.svg"
   xmlns:inkscape="http://www.inkscape.org/namespaces/inkscape"
   xmlns:sodipodi="http://sodipodi.sourceforge.net/DTD/sodipodi-0.dtd"
   xmlns="http://www.w3.org/2000/svg"
   xmlns:svg="http://www.w3.org/2000/svg">
  <sodipodi:namedview
     id="namedview7"
     pagecolor="#ffffff"
     bordercolor="#666666"
     borderopacity="1.0"
     inkscape:pageshadow="2"
     inkscape:pageopacity="0.0"
     inkscape:pagecheckerboard="0"
     inkscape:document-units="mm"
     showgrid="false"
     inkscape:zoom="0.36716151"
     inkscape:cx="-49.024746"
     inkscape:cy="-281.89229"
     inkscape:window-width="1920"
     inkscape:window-height="965"
     inkscape:window-x="1080"
     inkscape:window-y="388"
     inkscape:window-maximized="1"
     inkscape:current-layer="layer1" />
  <defs
     id="defs2" />
  <g
     inkscape:label="Capa 1"
     inkscape:groupmode="layer"
     id="layer1">
    <path
       style="fill:#000000;stroke-width:0.263501"
       d="M 76.890194,57.072159 C 76.385031,57.017779 72.78327,56.619571 68.886268,56.18726 62.51826,55.480825 61.468677,55.427543 58.520527,55.66102 c -5.18302,0.410469 -5.248481,0.404722 -5.248481,-0.460775 V 54.46768 L 41.659792,53.196032 C 19.377759,50.755941 15.871345,50.361683 15.089374,50.208476 14.656374,50.123646 11.084129,49.99519 7.1510506,49.92303 3.2149019,49.85081 0,49.685368 0,49.555026 c 0,-0.20534 7.9452066,-0.358968 12.399528,-0.239752 1.305906,0.03495 1.50615,-0.02445 1.48822,-0.441351 -0.01195,-0.277887 -0.07673,-0.341786 -0.15308,-0.151009 -0.164264,0.410438 -1.138321,0.44019 -1.138321,0.03477 0,-0.206962 -0.927202,-0.266634 -3.0834815,-0.198437 -2.6364866,0.08339 -3.071252,0.03999 -2.9991295,-0.299352 0.067643,-0.318254 0.01825,-0.331357 -0.2493025,-0.06615 -0.2272162,0.225224 -1.279629,0.330729 -3.2990434,0.330729 C 0.25557093,48.524474 0,48.482304 0,48.035212 c 0,-0.430824 0.30559628,-0.509665 2.5586332,-0.660088 3.851673,-0.257159 4.5917043,-0.230489 4.3607131,0.157162 -0.1527322,0.256315 -0.1119329,0.261512 0.1813299,0.0231 0.4304895,-0.349978 2.1947873,-0.572524 4.7547628,-0.599766 1.438496,-0.01532 1.773601,-0.101523 1.872131,-0.481666 0.114299,-0.440973 0.121463,-0.440973 0.150455,0 0.02462,0.374449 0.278816,0.463021 1.328846,0.463021 h 1.298406 l 0.09639,-1.389063 0.09639,-1.389062 0.04854,1.389062 0.04854,1.389063 h 1.426705 c 1.412955,0 1.427725,-0.0083 1.532546,-0.859896 l 0.105841,-0.859896 0.04199,0.859896 c 0.04613,0.944528 -0.02828,0.921393 3.125479,0.971857 l 1.377726,0.02204 0.04199,-1.059191 c 0.03873,-0.976746 0.05024,-0.992259 0.147839,-0.199295 0.05821,0.472943 0.245973,0.861719 0.417244,0.863947 0.231715,0.003 0.234141,0.0538 0.0095,0.198438 -0.166058,0.106912 1.035059,0.194386 2.669149,0.194386 h 2.971072 l 0.16513,-2.778125 c 0.243249,-4.092337 0.391886,-4.349223 0.250237,-0.432477 -0.110147,3.045677 -0.0788,3.386839 0.29777,3.241146 0.231481,-0.08956 0.824536,-0.162835 1.317898,-0.162835 0.493359,0 0.897019,-0.110324 0.897019,-0.245161 0,-0.230555 1.244811,-2.335831 3.531454,-5.972548 1.49061,-2.370693 2.763009,-4.38549 3.425375,-5.423958 1.487922,-2.332789 8.262274,-13.125936 11.541618,-18.388542 1.994964,-3.201458 3.804186,-6.029193 4.020486,-6.283854 0.21631,-0.254662 0.286423,-0.464844 0.155798,-0.467073 -0.130615,-0.0022 -0.103022,-0.09152 0.0613,-0.1984372 0.164337,-0.106913 0.947582,-1.2373686 1.740537,-2.5121256 1.362984,-2.191142 1.451803,-2.439691 1.626198,-4.5504353 0.189501,-2.29369932 0.341728,-2.60017932 1.424825,-2.86863132 0.813665,-0.201672 2.576628,0.802535 2.76956,1.57758332 0.154578,0.620919 0.434286,0.725305 10.903377,4.0690673 2.8145,0.898932 6.330547,2.036297 7.813444,2.527477 5.235021,1.7340006 14.628817,4.6791048 15.017429,4.7082038 0.216498,0.01621 0.452685,0.09793 0.524851,0.181594 0.07221,0.08367 1.591649,0.619446 3.376626,1.190625 2.88872,0.924362 3.80393,1.427672 3.37763,1.857485 -0.11731,0.118278 -14.522928,-4.562362 -33.923221,-11.0222468 -3.468449,-1.154918 -6.450232,-2.099852 -6.626204,-2.099852 -0.901055,0 -0.05574,0.541228 2.238698,1.433388 1.40725,0.547187 4.034768,1.573151 5.838932,2.279919 1.804164,0.706768 4.815474,1.874114 6.691804,2.5941006 7.495451,2.8761612 11.55998,4.4450752 17.582402,6.7868332 3.463989,1.34694 6.741009,2.607081 7.282259,2.800314 0.62179,0.221986 0.98408,0.519236 0.98408,0.807397 0,0.392004 -0.37782,0.30628 -2.68984,-0.610292 C 97.648383,17.271766 84.885799,12.254579 77.546266,9.3846688 75.236939,8.4816722 71.428617,6.9770022 69.083336,6.0409582 c -2.34528,-0.936045 -4.392187,-1.7019 -4.548679,-1.7019 -1.001677,0 0.589846,0.924239 5.284822,3.069039 2.950738,1.347983 6.132565,2.8015368 7.070725,3.2301208 0.93817,0.428584 5.515454,2.52659 10.171738,4.662238 4.65629,2.135647 8.601059,3.798828 8.76614,3.69596 0.16771,-0.104503 0.228996,-0.07095 0.138897,0.07605 -0.08867,0.144694 0.453985,0.540746 1.205967,0.880115 0.751972,0.339369 2.193863,0.998225 3.204194,1.464123 1.01033,0.465899 2.45695,1.114936 3.21469,1.442305 0.75775,0.327369 1.37772,0.759149 1.37772,0.95951 0,0.20036 -0.10308,0.364293 -0.22906,0.364293 -0.32485,0 -2.21742,-0.85034 -6.553261,-2.944399 -2.070442,-0.999955 -3.806001,-1.818101 -3.856793,-1.818101 -0.05078,0 -1.840465,-0.819578 -3.977053,-1.821285 -4.944488,-2.31815 -10.224549,-4.785861 -12.413477,-5.801624 -0.938169,-0.43535 -4.285495,-1.9939192 -7.438499,-3.4634858 -3.153004,-1.469566 -5.780522,-2.671939 -5.838932,-2.671939 -0.05842,0 -0.106097,0.148829 -0.105968,0.33073 1.19e-4,0.181901 1.269593,1.01478 2.821056,1.850843 1.551463,0.836064 3.765564,2.0368176 4.920232,2.6683438 1.677486,0.917481 14.600117,7.911855 22.174811,12.002126 8.459284,4.567944 10.496944,5.744774 10.496944,6.06239 0,0.563177 0.54277,0.813933 -6.001893,-2.772902 -1.35255,-0.74127 -2.592497,-1.271024 -2.755446,-1.177229 -0.162949,0.0938 -0.207453,0.07182 -0.09889,-0.04883 0.20907,-0.232367 -0.224423,-0.505581 -4.396154,-2.770727 C 88.643379,20.137725 88.473903,20.045306 82.138705,16.583344 79.468547,15.124193 76.870546,13.697543 76.365383,13.41301 75.86021,13.128477 74.502175,12.379646 73.347507,11.748941 72.192839,11.118236 70.320179,10.086876 69.186021,9.4570308 68.051874,8.8271858 67.000337,8.3888752 66.84927,8.4830072 c -0.151067,0.09413 -0.202434,0.05331 -0.11415,-0.09072 0.08827,-0.144024 -0.251739,-0.460077 -0.755622,-0.702338 -1.097945,-0.52788 -1.161344,-0.533884 -1.158745,-0.109746 9.92e-4,0.181901 0.443947,0.598417 0.984092,0.925591 0.982941,0.5953916 5.951555,3.7470458 11.784308,7.4749298 3.530637,2.256529 4.001145,2.548229 4.549552,2.820534 0.216498,0.107501 0.622567,0.409828 0.902364,0.671836 0.279798,0.262009 0.604278,0.47638 0.721057,0.47638 0.116779,0 0.787639,0.416718 1.490792,0.926041 0.703154,0.509323 1.357916,0.926042 1.455017,0.926042 0.0971,0 0.319184,0.121878 0.493509,0.270839 0.933746,0.797892 5.689121,3.62029 5.85211,3.47333 0.105105,-0.09476 0.117681,-0.04228 0.02797,0.116639 -0.09184,0.162679 0.319759,0.54842 0.942009,0.882777 1.237814,0.665117 2.766802,1.618403 6.305247,3.931179 1.32562,0.866439 2.9121,1.889937 3.52551,2.274443 0.61342,0.384503 1.1153,0.876197 1.1153,1.092653 0,0.564187 -0.12073,0.519715 -2.05859,-0.75823 -0.9606,-0.633481 -3.665898,-2.389653 -6.011771,-3.902604 -2.345876,-1.512949 -5.413384,-3.497377 -6.816686,-4.409837 -1.403308,-0.912462 -2.708062,-1.598436 -2.899457,-1.524386 -0.191395,0.07405 -0.276247,0.01761 -0.188568,-0.125431 0.08768,-0.143037 -0.939479,-0.962457 -2.282577,-1.820933 C 83.368843,20.443519 80.675715,18.708569 78.727219,17.44655 76.778723,16.184532 73.235996,13.89973 70.854503,12.369213 68.473,10.838697 66.190145,9.3475648 65.781488,9.0555878 65.0424,8.5275272 65.038938,8.5275002 65.125427,9.0503878 c 0.05396,0.326325 2.127106,2.0606202 5.466645,4.5731832 35.637488,26.812497 34.377518,25.842318 34.377518,26.470997 0,0.376021 -0.61633,0.0064 -2.59756,-1.557822 -1.42865,-1.127953 -3.406673,-2.642028 -4.395595,-3.364613 -0.988923,-0.722585 -2.819529,-2.113622 -4.068025,-3.091188 -1.248496,-0.977567 -2.340837,-1.70597 -2.427425,-1.618674 -0.08659,0.0873 -0.157424,0.03151 -0.157424,-0.123981 0,-0.243914 -1.77424,-1.680514 -3.680976,-2.980491 C 87.32242,27.139517 86.927013,26.841861 86.763886,26.69634 86.600768,26.55082 85.877172,25.988038 85.155898,25.445713 84.434623,24.903389 83.702061,24.338032 83.527984,24.189368 83.353906,24.040704 80.755915,22.051393 77.754662,19.768676 74.753399,17.485958 70.821693,14.492979 69.017529,13.11761 64.501303,9.6747528 64.893327,9.9543568 65.27571,10.44881 c 0.179166,0.23167 0.265386,0.482087 0.191603,0.556481 -0.07379,0.07439 1.373845,1.491337 3.216968,3.148761 1.843113,1.657425 3.882531,3.510656 4.532036,4.118291 1.778565,1.663924 2.531846,2.209088 2.762379,1.999185 0.114637,-0.104374 0.133581,-0.05741 0.04205,0.104356 -0.09373,0.165795 0.990103,1.320205 2.484158,2.645833 1.457764,1.29344 2.9603,2.62816 3.338954,2.966046 0.378654,0.337888 1.515093,1.349097 2.525429,2.24713 1.010336,0.898035 2.486469,2.234488 3.280296,2.969897 3.551382,3.290012 5.446716,4.862296 5.644131,4.682107 0.117335,-0.107098 0.136378,-0.05892 0.04235,0.107066 -0.09403,0.165981 0.09363,0.478864 0.417177,0.695293 0.323508,0.216427 0.947037,0.735465 1.385628,1.15342 0.438591,0.417954 1.727088,1.593352 2.863318,2.611998 1.13624,1.018646 2.607803,2.354728 3.270143,2.96907 1.04917,0.973137 1.37323,1.12368 2.51637,1.168958 1.19208,0.04722 1.21981,0.0616 0.30304,0.157258 -0.97493,0.101724 -0.99372,0.122391 -0.55538,0.61074 0.44023,0.49045 1.06984,0.466188 0.76598,-0.02952 -0.083,-0.135464 0.0134,-0.2463 0.21429,-0.2463 0.38334,0 0.43764,0.705773 0.097,1.261422 -0.11033,0.179975 -0.0754,0.326078 0.0781,0.326078 0.15935,0 0.27791,0.576865 0.27791,1.352134 v 1.352137 l -4.5268,-0.152656 C 97.953056,49.140035 90.259595,48.98873 83.346238,48.887765 l -12.569754,-0.183571 0.150779,0.637739 c 0.08292,0.350755 0.232169,1.322348 0.331671,2.159092 0.155917,1.311262 0.258264,1.523958 0.741111,1.540214 0.673498,0.02267 1.184126,0.08252 7.908085,0.926833 2.886666,0.362474 5.779888,0.707998 6.429393,0.767837 4.070818,0.375039 17.803837,2.078318 18.238447,2.262076 0.50004,0.211426 -25.757364,0.28176 -27.685716,0.07416 z M 94.926372,56.03754 c -0.08718,-0.08792 -0.313549,-0.09732 -0.502981,-0.02088 -0.209347,0.08446 -0.147159,0.147156 0.158546,0.15985 0.276643,0.01148 0.431638,-0.05105 0.344435,-0.138964 z m -41.50926,-3.521715 c -0.08163,-0.133091 -0.05901,-0.292171 0.05009,-0.35351 0.109152,-0.06134 0.03422,-0.06881 -0.166549,-0.01659 -0.540562,0.140586 -1.371425,-0.182147 -1.197863,-0.465288 0.08282,-0.135044 0.483055,-0.245534 0.88949,-0.245534 0.617727,0 0.765898,-0.135676 0.903,-0.826823 0.09026,-0.454752 0.16401,-1.161584 0.16401,-1.570738 v -0.743919 l -6.363773,-0.042 c -3.500082,-0.0231 -8.489416,-0.06041 -11.087413,-0.08291 l -4.723629,-0.0409 -0.07932,1.389063 c -0.05742,1.005448 0.01507,1.389123 0.262424,1.389285 0.187959,1.21e-4 1.581697,0.118697 3.097195,0.263504 1.515498,0.144809 4.408721,0.377534 6.429385,0.51717 2.020665,0.139637 4.087253,0.33446 4.592413,0.43294 0.981781,0.191395 0.863762,-0.254711 -0.13121,-0.496003 -0.296436,-0.07189 -0.09658,-0.14064 0.45924,-0.157975 0.713331,-0.02225 0.984092,0.0785 0.984092,0.366183 0,0.264584 0.262421,0.396875 0.787272,0.396875 0.432997,0 0.787272,-0.119062 0.787272,-0.264583 0,-0.145521 0.189768,-0.264583 0.42171,-0.264583 0.249437,0 0.365303,0.148209 0.283635,0.362788 -0.104956,0.275765 0.18116,0.370041 1.192745,0.39302 0.731947,0.01662 1.391589,0.0915 1.465858,0.166378 0.239241,0.241213 1.133433,0.144632 0.979897,-0.105838 z m 6.970749,-1.338188 c 0.08887,-0.004 0.06447,-0.513342 -0.05416,-1.131806 -0.118663,-0.618463 -0.220902,-1.213776 -0.22719,-1.322917 -0.006,-0.10914 -0.764251,-0.198437 -1.68438,-0.198437 -1.663769,0 -1.673856,0.0046 -1.836963,0.826823 -0.09026,0.454752 -0.164021,1.125188 -0.164021,1.489855 0,0.661361 0.005,0.662631 1.902574,0.50342 1.046419,-0.08779 1.975286,-0.162909 2.064155,-0.166938 z m 4.314694,-0.999514 c -0.101643,-0.545703 -0.195818,-1.141016 -0.209277,-1.322917 -0.01676,-0.227171 -0.544877,-0.330729 -1.686492,-0.330729 -1.637297,0 -1.662073,0.01082 -1.665604,0.727604 -0.002,0.400182 -0.07478,0.995495 -0.161819,1.322917 -0.154131,0.579863 -0.105472,0.595312 1.874892,0.595312 h 2.03312 z m 3.961551,0.642916 c 0.100384,-0.101211 0.0733,-0.629576 -0.06011,-1.174144 -0.237109,-0.967716 -0.273014,-0.99191 -1.586436,-1.068914 -1.466383,-0.08597 -1.662142,0.136287 -1.670454,1.896525 l -0.004,0.759405 1.569019,-0.114427 c 0.862969,-0.06293 1.651163,-0.197234 1.751546,-0.298445 z M 30.19724,50.574998 c 0.01016,-0.03638 0.07797,-0.642123 0.150663,-1.346094 0.117028,-1.133298 0.07732,-1.269442 -0.346523,-1.188244 -0.651623,0.12483 -0.8712,2.600484 -0.230647,2.600484 0.224407,0 0.416335,-0.02977 0.426507,-0.06615 z m -5.486511,-1.412021 c 0.05266,-0.667472 -0.0024,-1.274707 -0.122246,-1.349412 -0.311823,-0.194302 -0.35294,-0.09386 -0.534707,1.306224 -0.126153,0.971709 -0.08101,1.256771 0.19903,1.256771 0.241414,0 0.394114,-0.40468 0.457923,-1.213583 z m 2.628203,0.135472 c 0.05609,-0.592963 0.0094,-1.135771 -0.10365,-1.20624 -0.431833,-0.269087 -0.73047,0.238524 -0.73047,1.241634 0,1.459002 0.695561,1.429488 0.83412,-0.03539 z m -4.90169,-0.377097 c 0,-0.576204 -0.14167,-1.06185 -0.32803,-1.124479 -0.215139,-0.0723 -0.328029,0.170508 -0.328029,0.705556 0,0.465109 0.14101,0.824778 0.328029,0.836687 0.262425,0.01672 0.262425,0.04758 0,0.154339 -0.180416,0.0734 -0.328029,0.252516 -0.328029,0.398037 0,0.145521 0.147613,0.214974 0.328029,0.154339 0.18636,-0.06263 0.32803,-0.548275 0.32803,-1.124479 z M 20.39799,49.68754 c -0.0872,-0.08792 -0.313542,-0.09732 -0.502979,-0.02088 -0.209345,0.08446 -0.147161,0.147156 0.158548,0.15985 0.276639,0.01148 0.431632,-0.05105 0.344431,-0.138964 z m -1.765894,-0.766188 c 0,-0.218281 -0.09841,-0.396875 -0.218686,-0.396875 -0.120279,0 -0.218687,0.178594 -0.218687,0.396875 0,0.218281 0.09841,0.396875 0.218687,0.396875 0.120277,0 0.218686,-0.178594 0.218686,-0.396875 z m 1.836967,-0.132292 c 0,-0.291041 -0.11809,-0.529166 -0.262424,-0.529166 -0.144333,0 -0.262423,0.238125 -0.262423,0.529166 0,0.291042 0.11809,0.529167 0.262423,0.529167 0.144334,0 0.262424,-0.238125 0.262424,-0.529167 z m 17.417714,-1.818052 c 0.125924,-0.01871 0.07077,-0.24239 -0.12256,-0.497052 -0.19333,-0.254661 -0.2462,-0.372763 -0.117493,-0.262451 0.28904,0.247724 1.222276,-1.127768 1.00531,-1.481717 -0.08625,-0.140702 -0.03285,-0.178578 0.118657,-0.08417 0.151509,0.09441 0.352992,-0.03602 0.447738,-0.289848 0.09475,-0.253826 0.648827,-1.259748 1.231287,-2.23538 0.582461,-0.975633 0.980901,-1.901315 0.885421,-2.057075 -0.09548,-0.15576 -0.04425,-0.250484 0.113853,-0.2105 0.1581,0.03999 1.858798,-2.665735 3.779331,-6.012714 1.920532,-3.346979 4.147249,-7.216511 4.948257,-8.598959 4.299986,-7.421274 7.191631,-12.462905 7.891155,-13.758333 1.651331,-3.0580668 0.10325,-0.657752 -4.010101,6.217708 -5.915572,9.887855 -6.840818,11.474749 -6.806441,11.67375 0.01647,0.09533 -0.08302,0.246179 -0.220952,0.335212 -0.510667,0.32948 -2.424539,3.773903 -2.252704,4.054223 0.09792,0.159748 0.06524,0.220165 -0.07262,0.134258 -0.250715,-0.156226 -3.976165,5.78771 -3.80998,6.078802 0.04841,0.0848 -0.03301,0.229592 -0.180933,0.321768 -0.287509,0.179152 -3.491466,5.412187 -3.783626,6.179809 -0.09601,0.252251 -0.296355,0.458637 -0.44522,0.458637 -0.318748,0 -0.367807,-0.709374 -0.05794,-0.837848 0.116991,-0.04851 0.668635,-0.8621 1.225871,-1.807985 0.557237,-0.945886 1.2759,-2.136511 1.597028,-2.645834 2.225502,-3.529729 3.241544,-5.376481 3.092123,-5.620237 -0.0952,-0.155297 -0.05608,-0.209449 0.08692,-0.12034 0.273572,0.170468 2.103839,-2.894629 1.979579,-3.315145 -0.03965,-0.134215 0.0352,-0.177159 0.166364,-0.09543 0.131156,0.08173 0.393085,-0.236845 0.582056,-0.707938 0.188972,-0.471093 0.418787,-0.916064 0.510697,-0.988825 0.357532,-0.28304 7.079343,-11.760587 7.079343,-12.088038 0,-0.191058 0.105284,-0.347378 0.233965,-0.347378 0.204418,0 5.798098,-9.2258072 6.015707,-9.9218758 0.110699,-0.354056 -2.020603,2.9352608 -3.565202,5.5023138 -0.682633,1.134502 -1.418279,2.345291 -1.634778,2.690644 -4.454931,7.106334 -8.707151,14.056305 -8.747152,14.296626 -0.02422,0.145521 -0.134677,0.332428 -0.245451,0.415351 -0.551604,0.412911 -9.086855,14.632623 -8.939328,14.892906 0.09419,0.166188 0.07543,0.214712 -0.04169,0.107834 -0.117117,-0.106878 -0.381874,0.0122 -0.588344,0.264583 -0.780606,0.954252 -0.06445,-0.550693 1.353525,-2.844326 6.790533,-10.983971 6.433636,-10.368629 6.140703,-10.58739 -0.20357,-0.152021 -0.717711,0.586547 -3.22324,4.630209 -0.991841,1.600729 -2.556552,4.074377 -3.477132,5.496996 -0.92058,1.42262 -1.61746,2.678462 -1.548624,2.790759 0.06883,0.112297 0.0038,0.377087 -0.144705,0.58842 -0.209964,0.298953 -0.231792,0.266785 -0.09835,-0.144925 0.130839,-0.40367 0.09857,-0.456197 -0.136074,-0.221491 -0.55255,0.552702 -0.06625,0.751197 1.760381,0.718542 0.988025,-0.01767 1.899439,-0.04743 2.025361,-0.06614 z M 40.4687,44.894335 c 0.430074,-0.768318 0.703199,-1.396941 0.606944,-1.396941 -0.09626,0 -0.0021,-0.174435 0.209465,-0.387634 0.521667,-0.525962 4.988973,-8.643659 4.988973,-9.065643 0,-0.184968 0.061,-0.274842 0.135465,-0.199718 0.07449,0.07512 0.56386,-0.669018 1.087442,-1.653646 0.523581,-0.984629 1.702569,-3.150167 2.61998,-4.812303 0.917401,-1.662139 1.668014,-3.180186 1.668014,-3.373437 0,-0.193254 0.05892,-0.291968 0.130923,-0.219367 0.07201,0.0726 0.504756,-0.552477 0.961656,-1.389062 1.538292,-2.816621 2.422902,-4.418243 3.986466,-7.217725 0.855897,-1.532434 1.634083,-2.99095 1.72931,-3.241146 0.342204,-0.8991 -0.04999,-0.426879 -0.885682,1.066451 -1.058242,1.890981 -9.765223,16.969748 -15.01055,25.995313 -4.569195,7.862152 -4.574326,7.872994 -3.779969,7.986935 0.342214,0.04909 0.616778,-0.07569 0.673634,-0.306139 0.05279,-0.213948 0.447856,-1.017619 0.877929,-1.785938 z m 0.683638,1.979602 c 0.137014,0.213532 0.502025,0.275802 1.012872,0.172792 0.762751,-0.153805 1.136763,-0.851689 8.318342,-15.521522 4.135827,-8.448261 7.484987,-15.395457 7.442576,-15.438212 -0.09621,-0.09702 -12.50596,23.424554 -15.413167,29.214317 -0.461653,0.919393 -0.908848,1.601576 -0.993763,1.515962 -0.219363,-0.221168 -0.265963,-1.201616 -0.05073,-1.067504 0.09812,0.06114 0.528157,-0.569457 0.955635,-1.401334 1.459798,-2.840794 4.627096,-8.915431 7.6173,-14.609376 1.643039,-3.128698 3.081135,-5.867135 3.195762,-6.085417 0.114627,-0.218281 0.952383,-1.825625 1.861671,-3.571875 0.909287,-1.74625 2.004773,-3.807142 2.434427,-4.57976 0.429644,-0.772618 0.723427,-1.462983 0.652848,-1.534144 -0.07062,-0.07116 -0.892645,1.275357 -1.826818,2.992261 -0.934172,1.716904 -3.382971,6.157737 -5.44178,9.868518 -2.058808,3.710782 -4.682051,8.441825 -5.829425,10.513428 -1.173452,2.118675 -2.003218,3.901842 -1.896598,4.075777 0.107243,0.174948 0.07642,0.238731 -0.07098,0.146883 -0.143289,-0.08929 -0.933336,1.043528 -1.755661,2.517363 -1.103673,1.978085 -1.408612,2.733611 -1.164674,2.885614 0.184556,0.115001 0.420422,0.06606 0.534209,-0.110844 0.156628,-0.243512 0.253278,-0.239565 0.417955,0.01707 z m 3.929036,-0.07331 c 0.04162,-0.03319 0.946498,-2.010384 2.010835,-4.393766 1.064342,-2.383383 3.415901,-7.598574 5.225699,-11.589319 1.809797,-3.990742 3.230238,-7.354257 3.156545,-7.474478 -0.07369,-0.120222 -0.0244,-0.218584 0.109618,-0.218584 0.214227,0 0.683079,-0.95195 2.05243,-4.167188 0.201423,-0.472943 0.302452,-0.859896 0.224503,-0.859896 -0.07796,0 -3.370306,6.542281 -7.316344,14.538402 -7.142256,14.472804 -7.170938,14.537696 -6.356794,14.381787 0.449808,-0.08614 0.851886,-0.183769 0.893508,-0.216958 z m 1.101211,-0.227449 c 0.002,0.163711 0.299247,0.297656 0.660078,0.297656 0.360831,0 0.656061,-0.141671 0.656061,-0.314825 0,-0.173157 0.718845,-2.093039 1.597425,-4.266406 0.87858,-2.17337 2.222144,-5.499394 2.985681,-7.391165 0.763537,-1.891771 2.297217,-5.67133 3.408155,-8.399021 1.110948,-2.72769 1.981594,-5.139762 1.934769,-5.36016 -0.04682,-0.220399 -0.819169,1.237442 -1.716317,3.239644 -0.897147,2.002205 -2.33448,5.188183 -3.194076,7.079954 -0.859587,1.891771 -1.60169,3.618177 -1.64912,3.836458 -0.04741,0.218281 -0.164774,0.457192 -0.260774,0.53091 -0.246194,0.18904 -4.469808,9.584312 -4.489298,9.986278 -0.0089,0.181901 -0.114448,0.330729 -0.234727,0.330729 -0.120276,0 -0.216877,0.208359 -0.214668,0.463021 0.0035,0.395697 0.041,0.405315 0.258406,0.06615 0.13991,-0.218282 0.256193,-0.26293 0.258405,-0.09922 z m 3.568237,0.0095 c 0.0118,-0.02339 1.586534,-4.507394 3.499364,-9.964426 3.031484,-8.648401 4.340185,-12.986158 3.69672,-12.252899 C 56.76896,24.56814 49.762099,41.715141 48.38633,45.31458 l -0.643981,1.68487 0.993485,-0.187111 c 0.546424,-0.102912 1.003165,-0.206261 1.014988,-0.229661 z m 11.615904,-3.945149 c 0.01994,-2.364714 0.08976,-8.228542 0.155341,-13.03073 0.08123,-5.95071 0.04106,-8.225697 -0.126003,-7.14375 -0.220634,1.428542 -2.447956,20.528717 -2.676574,22.952605 -0.09075,0.961797 -0.06755,0.992187 0.756723,0.992187 0.467671,0 0.923292,0.119063 1.012498,0.264584 0.08917,0.14552 0.315107,0.264583 0.502009,0.264583 0.262728,0 0.348036,-0.97545 0.376006,-4.299479 z m -1.993317,3.05876 c 0.252581,-0.06655 0.6659,-0.06655 0.918481,0 0.252582,0.06655 0.04592,0.121002 -0.459241,0.121002 -0.505172,0 -0.711832,-0.05445 -0.45924,-0.121002 z m 2.821055,0.94374 c 0,-0.193064 0.152674,-0.169918 0.43631,0.06615 0.330282,0.274878 0.462375,0.28507 0.543557,0.04194 0.08381,-0.250907 0.218006,-0.251454 0.613383,-0.0024 0.387779,0.244163 0.620999,0.246364 0.997313,0.0094 0.375262,-0.236286 0.568779,-0.235696 0.820072,0.0024 0.252928,0.23975 0.356684,0.235371 0.449183,-0.01897 0.142716,-0.392425 0.863812,-0.447643 0.863812,-0.06614 0,0.14552 0.236177,0.264583 0.524841,0.264583 0.532835,0 0.674123,-0.418367 0.324014,-0.959387 -0.106038,-0.163862 -0.769419,-0.308663 -1.474169,-0.321779 -1.826064,-0.03399 -1.866987,-0.306334 -0.04602,-0.306334 1.439892,0 1.508249,-0.02971 1.369759,-0.595313 -0.08014,-0.327422 -0.500531,-2.619375 -0.934123,-5.093229 -0.433602,-2.473854 -1.031036,-5.807604 -1.327635,-7.408333 -0.29659,-1.600729 -0.899201,-4.93448 -1.339131,-7.408334 -0.43993,-2.473854 -0.85183,-4.616979 -0.915348,-4.7625 -0.109062,-0.249875 0.02777,3.217289 0.276703,7.011459 0.06209,0.945885 0.179355,2.910416 0.260665,4.365625 0.08133,1.455208 0.206719,3.479271 0.278697,4.497916 0.07201,1.018646 0.23703,3.642413 0.366772,5.830594 0.129742,2.188181 0.273807,4.13783 0.320146,4.332552 0.04632,0.194723 -0.06338,0.408612 -0.243784,0.475309 -0.195948,0.07244 -0.328031,-0.100688 -0.328031,-0.429948 0,-0.303168 -0.147615,-0.553038 -0.328031,-0.555266 -0.240649,-0.003 -0.232923,-0.06481 0.02906,-0.232153 0.259723,-0.165915 0.314205,-0.579583 0.199806,-1.517303 -0.08649,-0.70906 -0.27829,-3.432326 -0.426193,-6.051701 -0.147903,-2.619375 -0.329419,-5.834063 -0.403371,-7.14375 -0.07399,-1.309688 -0.247672,-4.167188 -0.386063,-6.35 -0.138391,-2.182813 -0.253444,-4.49461 -0.255686,-5.137327 -0.002,-0.642717 -0.05584,-1.116348 -0.119169,-1.052514 -0.06328,0.06383 -0.186803,6.1261 -0.274412,13.471703 -0.08758,7.345601 -0.209476,13.802122 -0.270812,14.347825 -0.06129,0.545704 0.003,0.992188 0.143202,0.992188 0.140087,0 0.254714,-0.133641 0.254714,-0.296979 z m 6.954235,0.0324 c 0.08917,-0.145521 0.03709,-0.264584 -0.115728,-0.264584 -0.152852,0 -0.277913,0.119063 -0.277913,0.264584 0,0.14552 0.05207,0.264583 0.115727,0.264583 0.06368,0 0.188708,-0.119063 0.277914,-0.264583 z m 3.184951,-0.347544 c -0.191415,-0.318175 -0.924651,-2.461702 -1.629422,-4.763394 -0.70477,-2.301693 -1.321446,-4.063773 -1.370393,-3.915733 -0.08193,0.247843 0.56503,5.290603 0.895025,6.97615 0.109539,0.559509 0.292771,0.727604 0.793143,0.727604 0.357875,0 0.58456,0.107884 0.503735,0.239744 -0.08084,0.131861 -0.402944,0.172252 -0.71581,0.08976 -0.443599,-0.116957 -0.53346,-0.05699 -0.408121,0.272327 0.08837,0.232273 0.01974,0.490247 -0.152555,0.573278 -0.172302,0.08303 0.004,0.09029 0.392292,0.01611 0.388077,-0.07417 0.762892,-0.04136 0.832926,0.07289 0.07002,0.114252 0.370303,0.226187 0.667269,0.24874 0.488252,0.03708 0.506621,-0.01437 0.191911,-0.537493 z m 4.440182,-0.105743 c -0.08034,-0.211058 -0.146058,-0.505807 -0.146058,-0.654995 0,-0.149188 -0.173354,-0.204181 -0.38523,-0.122206 -0.211877,0.08197 -0.455026,0.03518 -0.540334,-0.103983 -0.0853,-0.139166 0.03055,-0.253029 0.257541,-0.253029 0.48736,0 0.792776,0.772636 -3.137611,-7.937501 -1.543132,-3.419739 -3.342842,-7.440654 -3.99934,-8.935365 -0.656507,-1.494713 -1.22977,-2.681235 -1.273927,-2.636716 -0.04414,0.04452 0.157068,1.739924 0.447161,3.767572 0.370134,2.587037 0.909793,4.872881 1.809351,7.663799 0.705038,2.187442 1.568235,4.929669 1.918205,6.093836 0.351874,1.170495 0.769061,2.087099 0.93328,2.05052 0.171757,-0.03826 0.296966,0.283213 0.296966,0.762442 0,0.804289 0.02886,0.824759 0.984092,0.69809 0.541256,-0.07177 1.218384,-0.04635 1.504748,0.05649 0.746854,0.268224 1.506592,0.01199 1.331156,-0.448954 z m 9.563632,-0.503613 c 0,-0.49235 0.106275,-0.865418 0.236176,-0.829038 0.492686,0.137983 0.283011,-0.501325 -0.498944,-1.521354 -1.556065,-2.029807 -5.910146,-7.847989 -6.695493,-8.946915 -0.435219,-0.608989 -2.02944,-2.754077 -3.542728,-4.76686 -1.513277,-2.012786 -3.652622,-4.894326 -4.754089,-6.403424 -1.101466,-1.509097 -2.085558,-2.660242 -2.186864,-2.558099 -0.101316,0.102143 -0.144838,0.05398 -0.0967,-0.107025 0.09184,-0.307252 -2.366477,-3.671313 -2.548618,-3.487673 -0.223134,0.224976 0.427849,1.985045 0.938666,2.537855 0.29533,0.319604 0.478165,0.581099 0.406296,0.581099 -0.132083,0 11.55082,19.678153 12.409543,20.902083 0.25525,0.363803 0.747499,1.19724 1.093899,1.852084 1.08765,2.05614 1.179831,2.116667 3.223891,2.116667 1.012022,0 1.764232,0.07643 1.671574,0.169846 -0.09264,0.09342 -0.879929,0.159676 -1.749493,0.147246 -1.483582,-0.02122 -1.959327,0.209704 -1.29059,0.626406 0.202464,0.126162 0.182597,0.249876 -0.06566,0.40844 -0.241284,0.154144 -0.08113,0.228764 0.496832,0.231511 0.584956,0.0028 0.852882,-0.120626 0.852882,-0.392824 0,-0.218282 0.114378,-0.396875 0.254188,-0.396875 0.1398,0 0.178342,0.199263 0.0857,0.442809 -0.12768,0.335465 -0.06209,0.401616 0.270653,0.272886 0.241562,-0.09346 0.439196,-0.06574 0.439196,0.06159 0,0.127328 0.236186,0.169238 0.524851,0.09313 0.394384,-0.103984 0.524851,-0.360897 0.524851,-1.033563 z m -28.643089,0.72214 c 0.368418,-0.235381 0.501543,-1.187225 2.26646,-16.205782 1.032632,-8.787222 1.087511,-9.691573 0.415193,-6.842792 -1.230435,5.213691 -1.891168,9.094502 -2.500107,14.684375 -0.3646,3.346979 -0.720035,6.412839 -0.78986,6.813021 -0.09125,0.522743 -0.01795,0.727604 0.260119,0.727604 0.212889,0 0.387075,0.115327 0.387075,0.256281 0,0.140951 -0.177132,0.187746 -0.393641,0.103984 -0.249258,-0.09644 -0.39363,0.0037 -0.39363,0.272886 0,0.473429 0.218442,0.52901 0.748391,0.190423 z M 80.039281,46.01097 c 0,-0.625888 -0.07816,-0.661458 -1.452557,-0.661458 -1.337177,0 -1.431719,0.03927 -1.190147,0.494379 0.144333,0.271907 0.187855,0.569563 0.09671,0.661458 -0.09115,0.09189 0.444413,0.16708 1.190136,0.16708 1.271299,0 1.355853,-0.04125 1.355853,-0.661459 z m 2.099394,0.418515 c 0,-0.696407 -0.38278,-1.079973 -1.077771,-1.079973 -0.634856,0 -0.759193,0.108328 -0.759193,0.661458 0,0.579565 0.113715,0.661459 0.918482,0.661459 0.505163,0 0.918482,-0.109326 0.918482,-0.242944 z m 5.857122,-0.557662 c -0.617687,-0.69896 -0.75577,-0.751951 -1.0876,-0.417391 -0.611904,0.616945 -0.184373,1.217997 0.866381,1.217997 h 0.928747 z m 5.689528,0.227351 c 0,-0.422899 -0.0848,-0.457943 -0.52859,-0.218474 -0.290728,0.156871 -0.51293,0.190828 -0.493777,0.07545 0.09155,-0.551707 -0.06278,-0.871225 -0.420966,-0.871225 -0.216499,0 -0.395446,0.148828 -0.397658,0.330729 -0.003,0.220485 -0.08877,0.198437 -0.258403,-0.06615 -0.197604,-0.30829 -0.264058,-0.219707 -0.297721,0.396875 l -0.04334,0.79375 -0.10932,-0.727604 c -0.09799,-0.652325 -0.216558,-0.727604 -1.145762,-0.727604 -0.993461,0 -1.033898,0.03341 -0.975509,0.805994 l 0.0609,0.805995 2.305068,-0.04702 c 2.074936,-0.04233 2.305072,-0.09731 2.305072,-0.550723 z m 0.749393,-0.636656 c -0.325412,-0.328099 -0.383494,-0.269539 -0.437182,0.44078 -0.05772,0.764392 -0.03263,0.789683 0.375282,0.378365 0.3791,-0.382223 0.387322,-0.491048 0.06189,-0.819145 z m 3.711816,0.945327 c 0,-0.145521 0.236176,-0.264583 0.524841,-0.264583 0.622782,0 0.704411,-0.667663 0.109747,-0.897734 -0.228301,-0.08833 -0.818753,-0.160599 -1.312113,-0.160599 -0.764786,0 -0.897018,0.09101 -0.897018,0.61736 0,0.33955 0.07875,0.696738 0.17495,0.79375 0.27471,0.276981 1.399593,0.2061 1.399593,-0.08819 z m 3.936356,0.08698 c 0,-0.09768 -0.20004,-0.400462 -0.44453,-0.672843 -0.42091,-0.468924 -0.41742,-0.485537 0.0656,-0.312624 0.40316,0.144328 0.44563,0.112197 0.20251,-0.153236 -0.16919,-0.184721 -0.76554,-0.389189 -1.32523,-0.454371 -0.948419,-0.110456 -1.01763,-0.07227 -1.01763,0.561498 0,0.564902 0.121758,0.680014 0.71929,0.680014 0.39562,0 0.79229,0.119062 0.88149,0.264583 0.18084,0.295011 0.91849,0.364863 0.91849,0.08698 z m 2.09938,-0.08698 c 0,-0.145521 -0.11808,-0.264583 -0.26242,-0.264583 -0.14433,0 -0.26242,0.119062 -0.26242,0.264583 0,0.145521 0.11809,0.264584 0.26242,0.264584 0.14434,0 0.26242,-0.119063 0.26242,-0.264584 z M 52.321766,46.195131 c 0.07171,-0.116994 0.904427,-2.905176 1.850472,-6.19596 1.585265,-5.514316 2.251334,-8.57862 2.230179,-10.260076 -0.0069,-0.585097 -0.05078,-0.554551 -0.376066,0.264583 -0.706199,1.778363 -5.640961,15.913204 -5.640961,16.157647 0,0.300979 1.753838,0.3316 1.936376,0.03381 z m 1.999982,-0.02982 c 0,-0.133393 -0.147615,-0.302588 -0.32803,-0.375987 -0.208991,-0.08502 -0.173126,-0.141033 0.09879,-0.154339 0.427194,-0.0209 0.712665,-1.649608 1.13984,-6.503181 0.138847,-1.577538 0.134771,-1.570897 -0.648871,1.058334 -0.43373,1.455208 -1.015225,3.449505 -1.292226,4.431771 l -0.503626,1.785937 h 0.767048 c 0.421879,0 0.767058,-0.10914 0.767058,-0.242535 z m 48.543142,-0.160735 c -0.18257,-0.221797 -0.38599,-0.348781 -0.45205,-0.282186 -0.18198,0.183489 0.18779,0.685456 0.50494,0.685456 0.17401,0 0.1541,-0.151812 -0.0529,-0.40327 z m -6.55533,-0.522771 c 0,-0.218282 -0.181794,-0.396875 -0.403985,-0.396875 -0.333774,0 -0.34517,0.06722 -0.06556,0.38681 0.43016,0.491731 0.469586,0.492577 0.469586,0.01007 z m -2.755445,-0.132292 c 0.08917,-0.145521 -0.02192,-0.264583 -0.246938,-0.264583 -0.225019,0 -0.409124,0.119062 -0.409124,0.264583 0,0.145521 0.111116,0.264583 0.246938,0.264583 0.135813,0 0.319918,-0.119062 0.409124,-0.264583 z M 81.270856,44.725758 C 81.195675,44.528214 80.342119,43.069699 79.374065,41.484612 77.708669,38.757686 76.921993,37.431163 76.25278,36.221388 75.6391,35.112006 66.854527,20.339973 66.733632,20.214096 c -0.06992,-0.07276 -0.04285,0.463021 0.06001,1.190625 0.223779,1.582106 0.540284,2.342863 5.614003,13.49375 0.397281,0.873125 1.594529,3.522266 2.660557,5.886979 l 1.93823,4.29948 h 2.200542 c 1.745556,0 2.172274,-0.07426 2.063837,-0.359172 z m 17.66295,0.09459 c -0.284708,-0.185502 -0.0487,-0.257601 0.852868,-0.260532 0.685586,-0.0021 1.246516,-0.1006 1.246516,-0.218604 0,-0.118005 -1.0125,-1.10027 -2.250005,-2.182813 -1.237507,-1.082543 -2.684123,-2.371704 -3.214697,-2.864805 -0.530574,-0.493099 -2.499858,-2.276547 -4.376188,-3.963212 -3.157236,-2.838096 -8.750053,-7.927965 -9.053625,-8.239462 -0.07221,-0.07405 -1.075936,-0.967017 -2.230604,-1.984375 -1.154659,-1.017357 -2.276527,-2.031057 -2.493025,-2.252667 -0.216499,-0.221611 -2.046907,-1.886201 -4.067569,-3.69909 -2.020662,-1.812889 -3.732981,-3.359032 -3.805148,-3.435874 -0.0722,-0.07684 -1.038077,-0.949399 -2.146467,-1.939017 -1.635432,-1.46018 -1.981653,-1.675419 -1.836973,-1.141999 0.09809,0.361517 1.182063,1.71379 2.408897,3.00505 1.226835,1.291259 3.057847,3.234964 4.068927,4.319343 7.645298,8.199565 9.156056,9.743364 9.39135,9.596745 0.156214,-0.09734 0.186029,-0.03442 0.07191,0.151744 -0.120776,0.197011 0.437976,0.987573 1.468387,2.077601 2.94685,3.117342 3.717757,3.942265 6.28517,6.725557 1.387329,1.503995 2.844707,3.121808 3.238606,3.59514 0.393898,0.473334 0.841743,0.78236 0.99522,0.686723 0.153477,-0.09563 0.206362,-0.05529 0.117503,0.08966 -0.08887,0.144947 0.2273,0.643525 0.702559,1.10795 0.80197,0.783699 0.979688,0.839809 2.47173,0.7804 0.884194,-0.03521 1.691342,0.0204 1.79366,0.123555 0.102318,0.103161 0.313967,0.185743 0.47033,0.183515 0.15636,-0.0022 0.107158,-0.119468 -0.10934,-0.260533 z m -6.354688,-1.521354 c -0.790595,-0.836745 -2.311737,-2.469319 -3.38031,-3.627943 -1.068577,-1.158624 -2.370047,-2.56045 -2.892151,-3.115164 -0.522113,-0.554718 -1.820658,-1.988003 -2.885664,-3.185078 -1.064996,-1.197076 -2.822504,-3.132283 -3.905551,-4.300459 -1.867096,-2.013844 -6.546986,-7.103099 -9.722763,-10.573235 -3.709971,-4.053846 -3.917969,-4.251613 -3.921173,-3.728243 -0.003,0.484766 0.698363,1.514437 3.933244,5.774642 2.78164,3.663297 10.063687,13.347561 14.126623,18.78673 l 4.100974,5.490104 h 2.992104 2.992108 z M 66.304622,33.641702 c -0.0728,-0.181901 -0.132371,-0.03307 -0.132371,0.330729 0,0.363802 0.05961,0.512631 0.132371,0.33073 0.0728,-0.181901 0.0728,-0.479558 0,-0.661459 z M 47.279488,26.082847 c -0.0484,-0.06657 0.01637,-0.193886 0.143857,-0.282919 0.35595,-0.248486 1.445574,-1.881663 1.255409,-1.881663 -0.09234,0 -7.84e-4,-0.168457 0.203466,-0.374347 0.204209,-0.205891 0.942048,-1.307219 1.639627,-2.447396 0.69758,-1.140177 2.584661,-4.216174 4.193512,-6.835549 3.302415,-5.3766642 3.473735,-5.6703228 3.087285,-5.2916672 -0.148518,0.145521 -2.074598,3.1220832 -4.280179,6.6145842 -2.20558,3.4925 -4.996504,7.897812 -6.202044,9.789583 -1.205539,1.891771 -2.315483,3.734816 -2.466542,4.095657 -0.151059,0.360839 -0.367703,0.718027 -0.48143,0.79375 -0.455011,0.302956 -1.605666,2.423605 -1.451503,2.675105 0.09063,0.14783 1.128169,-1.306862 2.305664,-3.232653 1.177492,-1.925791 2.10129,-3.55591 2.052878,-3.622485 z m 18.762704,5.971355 c -0.0728,-0.181901 -0.132361,-0.03307 -0.132361,0.330729 0,0.363802 0.05951,0.512631 0.132361,0.33073 0.0728,-0.181901 0.0728,-0.479558 0,-0.661459 z m -0.699078,-5.03455 c -0.552563,-3.877223 -1.513237,-8.27804 -1.754056,-8.035239 -0.06387,0.06437 0.393363,2.926191 1.01602,6.359604 0.622656,3.433416 1.172581,6.121183 1.222053,5.972818 0.04949,-0.148365 -0.168344,-2.082099 -0.484017,-4.297183 z m -4.759762,-7.202429 c -0.02162,-1.009856 -0.937585,2.446003 -1.094394,4.128902 -0.149599,1.605513 -0.125389,1.55679 0.474029,-0.953902 0.347421,-1.455208 0.626594,-2.883958 0.620365,-3.175 z m 0.472789,0.595312 c -0.0728,-0.181901 -0.13236,-0.03307 -0.13236,0.33073 0,0.363802 0.05951,0.51263 0.13236,0.330729 0.0728,-0.181901 0.0728,-0.479558 0,-0.661459 z M 60.459759,17.96514 c 0.128612,-0.57968 0.104262,-0.686715 -0.09026,-0.396875 -0.146505,0.218281 -0.268183,0.625078 -0.270395,0.903993 -0.005,0.676922 0.144838,0.465735 0.360672,-0.507118 z m 2.963662,0.08268 c -0.08381,-0.211067 -0.145959,-0.148372 -0.158545,0.159852 -0.01141,0.278915 0.05058,0.435185 0.137826,0.347266 0.08718,-0.08792 0.09651,-0.316122 0.02073,-0.507118 z m 0.524851,-0.529167 c -0.08381,-0.211067 -0.145959,-0.148372 -0.158545,0.159853 -0.01141,0.278914 0.05058,0.435184 0.137826,0.347265 0.08718,-0.08792 0.09651,-0.316122 0.02073,-0.507118 z M 13.959625,44.158852 c 0.0054,-0.436563 0.06416,-0.583126 0.130698,-0.325694 0.06653,0.257431 0.06216,0.614619 -0.0097,0.79375 -0.07189,0.179131 -0.126324,-0.03149 -0.120976,-0.468056 z m 6.056066,-0.396875 c 0,-0.654844 0.05118,-0.922735 0.113726,-0.595313 0.06255,0.327422 0.06255,0.863203 0,1.190625 -0.06255,0.327422 -0.113726,0.05953 -0.113726,-0.595312 z m 4.733471,-1.190625 c 0.0015,-0.873125 0.05047,-1.198415 0.10887,-0.722866 0.05841,0.475549 0.0572,1.189924 -0.0027,1.5875 -0.05988,0.397577 -0.107666,0.0085 -0.106193,-0.864634 z m -0.606165,-3.058324 c 0,-0.154109 0.118092,-0.206613 0.262425,-0.116676 0.144332,0.08994 0.262424,0.216027 0.262424,0.280199 0,0.06417 -0.118092,0.116676 -0.262424,0.116676 -0.144333,0 -0.262425,-0.12609 -0.262425,-0.280199 z m 6.166962,-1.042718 c 0.08921,-0.145521 0.214264,-0.264583 0.277912,-0.264583 0.06365,0 0.115724,0.119062 0.115724,0.264583 0,0.145521 -0.125061,0.264583 -0.277912,0.264583 -0.152851,0 -0.204927,-0.119062 -0.115724,-0.264583 z m 1.394127,0.08384 c 0.189436,-0.07643 0.415777,-0.06703 0.50298,0.02088 0.0872,0.08792 -0.06779,0.150452 -0.344432,0.138964 -0.30571,-0.0127 -0.367891,-0.07539 -0.158548,-0.159851 z"
       id="path12782" />
  </g>
</svg>
